<?xml version="1.0" encoding="UTF-8" standalone="no"?>
<!DOCTYPE svg PUBLIC "-//W3C//DTD SVG 1.1//EN"
 "http://www.w3.org/Graphics/SVG/1.1/DTD/svg11.dtd">
<!-- Generated by graphviz version 2.30.1 (20180420.1509)
 -->
<!-- Title: snakemake_dag Pages: 1 -->
<svg width="626pt" height="1052pt"
 viewBox="0.00 0.00 625.63 1052.00" xmlns="http://www.w3.org/2000/svg" xmlns:xlink="http://www.w3.org/1999/xlink">
<g id="graph0" class="graph" transform="scale(1 1) rotate(0) translate(4 1048)">
<title>snakemake_dag</title>
<polygon fill="white" stroke="white" points="-4,5 -4,-1048 622.631,-1048 622.631,5 -4,5"/>
<!-- 0 -->
<g id="node1" class="node"><title>0</title>
<path fill="none" stroke="#56d8a9" stroke-width="2" stroke-dasharray="5,2" d="M285.631,-36C285.631,-36 255.631,-36 255.631,-36 249.631,-36 243.631,-30 243.631,-24 243.631,-24 243.631,-12 243.631,-12 243.631,-6 249.631,-0 255.631,-0 255.631,-0 285.631,-0 285.631,-0 291.631,-0 297.631,-6 297.631,-12 297.631,-12 297.631,-24 297.631,-24 297.631,-30 291.631,-36 285.631,-36"/>
<text text-anchor="middle" x="270.631" y="-15.5" font-family="sans" font-size="10.00">all</text>
</g>
<!-- 1 -->
<g id="node2" class="node"><title>1</title>
<path fill="none" stroke="#8fd856" stroke-width="2" stroke-dasharray="5,2" d="M286.631,-252C286.631,-252 256.631,-252 256.631,-252 250.631,-252 244.631,-246 244.631,-240 244.631,-240 244.631,-228 244.631,-228 244.631,-222 250.631,-216 256.631,-216 256.631,-216 286.631,-216 286.631,-216 292.631,-216 298.631,-222 298.631,-228 298.631,-228 298.631,-240 298.631,-240 298.631,-246 292.631,-252 286.631,-252"/>
<text text-anchor="middle" x="271.631" y="-231.5" font-family="sans" font-size="10.00">snpeff</text>
</g>
<!-- 1&#45;&gt;0 -->
<g id="edge1" class="edge"><title>1&#45;&gt;0</title>
<path fill="none" stroke="grey" stroke-width="2" d="M266.762,-215.979C264.067,-205.665 260.994,-192.189 259.631,-180 254.298,-132.297 254.728,-119.749 259.631,-72 260.509,-63.455 262.162,-54.2552 263.925,-45.9576"/>
<polygon fill="grey" stroke="grey" points="267.374,-46.5728 266.167,-36.0469 260.547,-45.0282 267.374,-46.5728"/>
</g>
<!-- 4 -->
<g id="node5" class="node"><title>4</title>
<path fill="none" stroke="#d85656" stroke-width="2" stroke-dasharray="5,2" d="M323.881,-180C323.881,-180 281.381,-180 281.381,-180 275.381,-180 269.381,-174 269.381,-168 269.381,-168 269.381,-156 269.381,-156 269.381,-150 275.381,-144 281.381,-144 281.381,-144 323.881,-144 323.881,-144 329.881,-144 335.881,-150 335.881,-156 335.881,-156 335.881,-168 335.881,-168 335.881,-174 329.881,-180 323.881,-180"/>
<text text-anchor="middle" x="302.631" y="-159.5" font-family="sans" font-size="10.00">vcf_to_tsv</text>
</g>
<!-- 1&#45;&gt;4 -->
<g id="edge7" class="edge"><title>1&#45;&gt;4</title>
<path fill="none" stroke="grey" stroke-width="2" d="M279.294,-215.697C282.823,-207.728 287.087,-198.1 291,-189.264"/>
<polygon fill="grey" stroke="grey" points="294.207,-190.665 295.056,-180.104 287.807,-187.831 294.207,-190.665"/>
</g>
<!-- 2 -->
<g id="node3" class="node"><title>2</title>
<path fill="none" stroke="#56c9d8" stroke-width="2" stroke-dasharray="5,2" d="M321.881,-108C321.881,-108 281.381,-108 281.381,-108 275.381,-108 269.381,-102 269.381,-96 269.381,-96 269.381,-84 269.381,-84 269.381,-78 275.381,-72 281.381,-72 281.381,-72 321.881,-72 321.881,-72 327.881,-72 333.881,-78 333.881,-84 333.881,-84 333.881,-96 333.881,-96 333.881,-102 327.881,-108 321.881,-108"/>
<text text-anchor="middle" x="301.631" y="-87.5" font-family="sans" font-size="10.00">plot_stats</text>
</g>
<!-- 2&#45;&gt;0 -->
<g id="edge2" class="edge"><title>2&#45;&gt;0</title>
<path fill="none" stroke="grey" stroke-width="2" d="M293.968,-71.6966C290.439,-63.7284 286.175,-54.0995 282.262,-45.2641"/>
<polygon fill="grey" stroke="grey" points="285.455,-43.8306 278.206,-36.1043 279.055,-46.6651 285.455,-43.8306"/>
</g>
<!-- 3 -->
<g id="node4" class="node"><title>3</title>
<path fill="none" stroke="#59d856" stroke-width="2" stroke-dasharray="5,2" d="M297.631,-324C297.631,-324 245.631,-324 245.631,-324 239.631,-324 233.631,-318 233.631,-312 233.631,-312 233.631,-300 233.631,-300 233.631,-294 239.631,-288 245.631,-288 245.631,-288 297.631,-288 297.631,-288 303.631,-288 309.631,-294 309.631,-300 309.631,-300 309.631,-312 309.631,-312 309.631,-318 303.631,-324 297.631,-324"/>
<text text-anchor="middle" x="271.631" y="-303.5" font-family="sans" font-size="10.00">merge_calls</text>
</g>
<!-- 3&#45;&gt;1 -->
<g id="edge3" class="edge"><title>3&#45;&gt;1</title>
<path fill="none" stroke="grey" stroke-width="2" d="M271.631,-287.697C271.631,-279.983 271.631,-270.712 271.631,-262.112"/>
<polygon fill="grey" stroke="grey" points="275.131,-262.104 271.631,-252.104 268.131,-262.104 275.131,-262.104"/>
</g>
<!-- 4&#45;&gt;2 -->
<g id="edge4" class="edge"><title>4&#45;&gt;2</title>
<path fill="none" stroke="grey" stroke-width="2" d="M302.384,-143.697C302.274,-135.983 302.141,-126.712 302.018,-118.112"/>
<polygon fill="grey" stroke="grey" points="305.518,-118.053 301.876,-108.104 298.519,-118.153 305.518,-118.053"/>
</g>
<!-- 5 -->
<g id="node6" class="node"><title>5</title>
<path fill="none" stroke="#c6d856" stroke-width="2" stroke-dasharray="5,2" d="M251.631,-396C251.631,-396 147.631,-396 147.631,-396 141.631,-396 135.631,-390 135.631,-384 135.631,-384 135.631,-372 135.631,-372 135.631,-366 141.631,-360 147.631,-360 147.631,-360 251.631,-360 251.631,-360 257.631,-360 263.631,-366 263.631,-372 263.631,-372 263.631,-384 263.631,-384 263.631,-390 257.631,-396 251.631,-396"/>
<text text-anchor="middle" x="199.631" y="-375.5" font-family="sans" font-size="10.00">hard_filter_calls_indels</text>
</g>
<!-- 5&#45;&gt;3 -->
<g id="edge5" class="edge"><title>5&#45;&gt;3</title>
<path fill="none" stroke="grey" stroke-width="2" d="M217.429,-359.697C226.235,-351.135 237.013,-340.656 246.632,-331.304"/>
<polygon fill="grey" stroke="grey" points="249.308,-333.585 254.038,-324.104 244.428,-328.566 249.308,-333.585"/>
</g>
<!-- 6 -->
<g id="node7" class="node"><title>6</title>
<path fill="none" stroke="#70d856" stroke-width="2" stroke-dasharray="5,2" d="M394.881,-396C394.881,-396 294.381,-396 294.381,-396 288.381,-396 282.381,-390 282.381,-384 282.381,-384 282.381,-372 282.381,-372 282.381,-366 288.381,-360 294.381,-360 294.381,-360 394.881,-360 394.881,-360 400.881,-360 406.881,-366 406.881,-372 406.881,-372 406.881,-384 406.881,-384 406.881,-390 400.881,-396 394.881,-396"/>
<text text-anchor="middle" x="344.631" y="-375.5" font-family="sans" font-size="10.00">recalibrate_calls_snps</text>
</g>
<!-- 6&#45;&gt;3 -->
<g id="edge6" class="edge"><title>6&#45;&gt;3</title>
<path fill="none" stroke="grey" stroke-width="2" d="M326.586,-359.697C317.569,-351.05 306.513,-340.449 296.688,-331.027"/>
<polygon fill="grey" stroke="grey" points="299.109,-328.499 289.469,-324.104 294.264,-333.552 299.109,-328.499"/>
</g>
<!-- 7 -->
<g id="node8" class="node"><title>7</title>
<path fill="none" stroke="#d8cb56" stroke-width="2" stroke-dasharray="5,2" d="M241.881,-468C241.881,-468 177.381,-468 177.381,-468 171.381,-468 165.381,-462 165.381,-456 165.381,-456 165.381,-444 165.381,-444 165.381,-438 171.381,-432 177.381,-432 177.381,-432 241.881,-432 241.881,-432 247.881,-432 253.881,-438 253.881,-444 253.881,-444 253.881,-456 253.881,-456 253.881,-462 247.881,-468 241.881,-468"/>
<text text-anchor="middle" x="209.631" y="-453" font-family="sans" font-size="10.00">select_calls</text>
<text text-anchor="middle" x="209.631" y="-442" font-family="sans" font-size="10.00">vartype: indels</text>
</g>
<!-- 7&#45;&gt;5 -->
<g id="edge8" class="edge"><title>7&#45;&gt;5</title>
<path fill="none" stroke="grey" stroke-width="2" d="M207.159,-431.697C206.057,-423.983 204.733,-414.712 203.504,-406.112"/>
<polygon fill="grey" stroke="grey" points="206.954,-405.509 202.075,-396.104 200.024,-406.499 206.954,-405.509"/>
</g>
<!-- 8 -->
<g id="node9" class="node"><title>8</title>
<path fill="none" stroke="#d8cb56" stroke-width="2" stroke-dasharray="5,2" d="M362.881,-468C362.881,-468 304.381,-468 304.381,-468 298.381,-468 292.381,-462 292.381,-456 292.381,-456 292.381,-444 292.381,-444 292.381,-438 298.381,-432 304.381,-432 304.381,-432 362.881,-432 362.881,-432 368.881,-432 374.881,-438 374.881,-444 374.881,-444 374.881,-456 374.881,-456 374.881,-462 368.881,-468 362.881,-468"/>
<text text-anchor="middle" x="333.631" y="-453" font-family="sans" font-size="10.00">select_calls</text>
<text text-anchor="middle" x="333.631" y="-442" font-family="sans" font-size="10.00">vartype: snvs</text>
</g>
<!-- 8&#45;&gt;6 -->
<g id="edge9" class="edge"><title>8&#45;&gt;6</title>
<path fill="none" stroke="grey" stroke-width="2" d="M336.35,-431.697C337.562,-423.983 339.019,-414.712 340.371,-406.112"/>
<polygon fill="grey" stroke="grey" points="343.848,-406.526 341.943,-396.104 336.933,-405.44 343.848,-406.526"/>
</g>
<!-- 9 -->
<g id="node10" class="node"><title>9</title>
<path fill="none" stroke="#d87556" stroke-width="2" stroke-dasharray="5,2" d="M295.881,-540C295.881,-540 227.381,-540 227.381,-540 221.381,-540 215.381,-534 215.381,-528 215.381,-528 215.381,-516 215.381,-516 215.381,-510 221.381,-504 227.381,-504 227.381,-504 295.881,-504 295.881,-504 301.881,-504 307.881,-510 307.881,-516 307.881,-516 307.881,-528 307.881,-528 307.881,-534 301.881,-540 295.881,-540"/>
<text text-anchor="middle" x="261.631" y="-519.5" font-family="sans" font-size="10.00">merge_variants</text>
</g>
<!-- 9&#45;&gt;7 -->
<g id="edge10" class="edge"><title>9&#45;&gt;7</title>
<path fill="none" stroke="grey" stroke-width="2" d="M248.777,-503.697C242.606,-495.389 235.094,-485.277 228.307,-476.141"/>
<polygon fill="grey" stroke="grey" points="231.11,-474.045 222.337,-468.104 225.491,-478.219 231.11,-474.045"/>
</g>
<!-- 9&#45;&gt;8 -->
<g id="edge11" class="edge"><title>9&#45;&gt;8</title>
<path fill="none" stroke="grey" stroke-width="2" d="M279.429,-503.697C288.235,-495.135 299.013,-484.656 308.632,-475.304"/>
<polygon fill="grey" stroke="grey" points="311.308,-477.585 316.038,-468.104 306.428,-472.566 311.308,-477.585"/>
</g>
<!-- 10 -->
<g id="node11" class="node"><title>10</title>
<path fill="none" stroke="#d8ac56" stroke-width="2" stroke-dasharray="5,2" d="M302.881,-612C302.881,-612 220.381,-612 220.381,-612 214.381,-612 208.381,-606 208.381,-600 208.381,-600 208.381,-588 208.381,-588 208.381,-582 214.381,-576 220.381,-576 220.381,-576 302.881,-576 302.881,-576 308.881,-576 314.881,-582 314.881,-588 314.881,-588 314.881,-600 314.881,-600 314.881,-606 308.881,-612 302.881,-612"/>
<text text-anchor="middle" x="261.631" y="-591.5" font-family="sans" font-size="10.00">genotype_variants</text>
</g>
<!-- 10&#45;&gt;9 -->
<g id="edge12" class="edge"><title>10&#45;&gt;9</title>
<path fill="none" stroke="grey" stroke-width="2" d="M261.631,-575.697C261.631,-567.983 261.631,-558.712 261.631,-550.112"/>
<polygon fill="grey" stroke="grey" points="265.131,-550.104 261.631,-540.104 258.131,-550.104 265.131,-550.104"/>
</g>
<!-- 11 -->
<g id="node12" class="node"><title>11</title>
<path fill="none" stroke="#56d892" stroke-width="2" stroke-dasharray="5,2" d="M292.631,-684C292.631,-684 230.631,-684 230.631,-684 224.631,-684 218.631,-678 218.631,-672 218.631,-672 218.631,-660 218.631,-660 218.631,-654 224.631,-648 230.631,-648 230.631,-648 292.631,-648 292.631,-648 298.631,-648 304.631,-654 304.631,-660 304.631,-660 304.631,-672 304.631,-672 304.631,-678 298.631,-684 292.631,-684"/>
<text text-anchor="middle" x="261.631" y="-663.5" font-family="sans" font-size="10.00">combine_calls</text>
</g>
<!-- 11&#45;&gt;10 -->
<g id="edge13" class="edge"><title>11&#45;&gt;10</title>
<path fill="none" stroke="grey" stroke-width="2" d="M261.631,-647.697C261.631,-639.983 261.631,-630.712 261.631,-622.112"/>
<polygon fill="grey" stroke="grey" points="265.131,-622.104 261.631,-612.104 258.131,-622.104 265.131,-622.104"/>
</g>
<!-- 12 -->
<g id="node13" class="node"><title>12</title>
<path fill="none" stroke="#d88d56" stroke-width="2" stroke-dasharray="5,2" d="M157.881,-756C157.881,-756 103.381,-756 103.381,-756 97.3812,-756 91.3812,-750 91.3812,-744 91.3812,-744 91.3812,-732 91.3812,-732 91.3812,-726 97.3812,-720 103.381,-720 103.381,-720 157.881,-720 157.881,-720 163.881,-720 169.881,-726 169.881,-732 169.881,-732 169.881,-744 169.881,-744 169.881,-750 163.881,-756 157.881,-756"/>
<text text-anchor="middle" x="130.631" y="-741" font-family="sans" font-size="10.00">call_variants</text>
<text text-anchor="middle" x="130.631" y="-730" font-family="sans" font-size="10.00">contig: 7</text>
</g>
<!-- 12&#45;&gt;11 -->
<g id="edge14" class="edge"><title>12&#45;&gt;11</title>
<path fill="none" stroke="grey" stroke-width="2" d="M162.677,-719.876C180.123,-710.554 201.896,-698.919 220.574,-688.939"/>
<polygon fill="grey" stroke="grey" points="222.291,-691.99 229.462,-684.19 218.992,-685.816 222.291,-691.99"/>
</g>
<!-- 13 -->
<g id="node14" class="node"><title>13</title>
<path fill="none" stroke="#d88d56" stroke-width="2" stroke-dasharray="5,2" d="M288.881,-756C288.881,-756 234.381,-756 234.381,-756 228.381,-756 222.381,-750 222.381,-744 222.381,-744 222.381,-732 222.381,-732 222.381,-726 228.381,-720 234.381,-720 234.381,-720 288.881,-720 288.881,-720 294.881,-720 300.881,-726 300.881,-732 300.881,-732 300.881,-744 300.881,-744 300.881,-750 294.881,-756 288.881,-756"/>
<text text-anchor="middle" x="261.631" y="-741" font-family="sans" font-size="10.00">call_variants</text>
<text text-anchor="middle" x="261.631" y="-730" font-family="sans" font-size="10.00">contig: 7</text>
</g>
<!-- 13&#45;&gt;11 -->
<g id="edge15" class="edge"><title>13&#45;&gt;11</title>
<path fill="none" stroke="grey" stroke-width="2" d="M261.631,-719.697C261.631,-711.983 261.631,-702.712 261.631,-694.112"/>
<polygon fill="grey" stroke="grey" points="265.131,-694.104 261.631,-684.104 258.131,-694.104 265.131,-694.104"/>
</g>
<!-- 14 -->
<g id="node15" class="node"><title>14</title>
<path fill="none" stroke="#d88d56" stroke-width="2" stroke-dasharray="5,2" d="M419.881,-756C419.881,-756 365.381,-756 365.381,-756 359.381,-756 353.381,-750 353.381,-744 353.381,-744 353.381,-732 353.381,-732 353.381,-726 359.381,-720 365.381,-720 365.381,-720 419.881,-720 419.881,-720 425.881,-720 431.881,-726 431.881,-732 431.881,-732 431.881,-744 431.881,-744 431.881,-750 425.881,-756 419.881,-756"/>
<text text-anchor="middle" x="392.631" y="-741" font-family="sans" font-size="10.00">call_variants</text>
<text text-anchor="middle" x="392.631" y="-730" font-family="sans" font-size="10.00">contig: 7</text>
</g>
<!-- 14&#45;&gt;11 -->
<g id="edge16" class="edge"><title>14&#45;&gt;11</title>
<path fill="none" stroke="grey" stroke-width="2" d="M360.585,-719.876C343.14,-710.554 321.366,-698.919 302.688,-688.939"/>
<polygon fill="grey" stroke="grey" points="304.27,-685.816 293.801,-684.19 300.971,-691.99 304.27,-685.816"/>
</g>
<!-- 15 -->
<g id="node16" class="node"><title>15</title>
<path fill="none" stroke="#56a9d8" stroke-width="2" stroke-dasharray="5,2" d="M156.881,-828C156.881,-828 36.3812,-828 36.3812,-828 30.3812,-828 24.3812,-822 24.3812,-816 24.3812,-816 24.3812,-804 24.3812,-804 24.3812,-798 30.3812,-792 36.3812,-792 36.3812,-792 156.881,-792 156.881,-792 162.881,-792 168.881,-798 168.881,-804 168.881,-804 168.881,-816 168.881,-816 168.881,-822 162.881,-828 156.881,-828"/>
<text text-anchor="middle" x="96.6312" y="-807.5" font-family="sans" font-size="10.00">recalibrate_base_qualities</text>
</g>
<!-- 15&#45;&gt;12 -->
<g id="edge17" class="edge"><title>15&#45;&gt;12</title>
<path fill="none" stroke="grey" stroke-width="2" d="M105.036,-791.697C108.906,-783.728 113.583,-774.1 117.874,-765.264"/>
<polygon fill="grey" stroke="grey" points="121.103,-766.629 122.323,-756.104 114.806,-763.57 121.103,-766.629"/>
</g>
<!-- 16 -->
<g id="node17" class="node"><title>16</title>
<path fill="none" stroke="#56a9d8" stroke-width="2" stroke-dasharray="5,2" d="M321.881,-828C321.881,-828 201.381,-828 201.381,-828 195.381,-828 189.381,-822 189.381,-816 189.381,-816 189.381,-804 189.381,-804 189.381,-798 195.381,-792 201.381,-792 201.381,-792 321.881,-792 321.881,-792 327.881,-792 333.881,-798 333.881,-804 333.881,-804 333.881,-816 333.881,-816 333.881,-822 327.881,-828 321.881,-828"/>
<text text-anchor="middle" x="261.631" y="-807.5" font-family="sans" font-size="10.00">recalibrate_base_qualities</text>
</g>
<!-- 16&#45;&gt;13 -->
<g id="edge18" class="edge"><title>16&#45;&gt;13</title>
<path fill="none" stroke="grey" stroke-width="2" d="M261.631,-791.697C261.631,-783.983 261.631,-774.712 261.631,-766.112"/>
<polygon fill="grey" stroke="grey" points="265.131,-766.104 261.631,-756.104 258.131,-766.104 265.131,-766.104"/>
</g>
<!-- 17 -->
<g id="node18" class="node"><title>17</title>
<path fill="none" stroke="#56a9d8" stroke-width="2" stroke-dasharray="5,2" d="M486.881,-828C486.881,-828 366.381,-828 366.381,-828 360.381,-828 354.381,-822 354.381,-816 354.381,-816 354.381,-804 354.381,-804 354.381,-798 360.381,-792 366.381,-792 366.381,-792 486.881,-792 486.881,-792 492.881,-792 498.881,-798 498.881,-804 498.881,-804 498.881,-816 498.881,-816 498.881,-822 492.881,-828 486.881,-828"/>
<text text-anchor="middle" x="426.631" y="-807.5" font-family="sans" font-size="10.00">recalibrate_base_qualities</text>
</g>
<!-- 17&#45;&gt;14 -->
<g id="edge19" class="edge"><title>17&#45;&gt;14</title>
<path fill="none" stroke="grey" stroke-width="2" d="M418.227,-791.697C414.356,-783.728 409.68,-774.1 405.388,-765.264"/>
<polygon fill="grey" stroke="grey" points="408.456,-763.57 400.939,-756.104 402.16,-766.629 408.456,-763.57"/>
</g>
<!-- 18 -->
<g id="node19" class="node"><title>18</title>
<path fill="none" stroke="#5692d8" stroke-width="2" stroke-dasharray="5,2" d="M102.631,-972C102.631,-972 28.6312,-972 28.6312,-972 22.6312,-972 16.6312,-966 16.6312,-960 16.6312,-960 16.6312,-948 16.6312,-948 16.6312,-942 22.6312,-936 28.6312,-936 28.6312,-936 102.631,-936 102.631,-936 108.631,-936 114.631,-942 114.631,-948 114.631,-948 114.631,-960 114.631,-960 114.631,-966 108.631,-972 102.631,-972"/>
<text text-anchor="middle" x="65.6312" y="-951.5" font-family="sans" font-size="10.00">mark_duplicates</text>
</g>
<!-- 18&#45;&gt;15 -->
<g id="edge20" class="edge"><title>18&#45;&gt;15</title>
<path fill="none" stroke="grey" stroke-width="2" d="M37.3711,-935.971C25.1994,-926.957 12.2587,-914.697 5.63116,-900 -0.946044,-885.414 -2.34256,-877.872 5.63116,-864 13.1082,-850.993 25.1424,-840.878 38.0439,-833.139"/>
<polygon fill="grey" stroke="grey" points="40.0077,-836.053 47.0689,-828.154 36.6232,-829.925 40.0077,-836.053"/>
</g>
<!-- 19 -->
<g id="node20" class="node"><title>19</title>
<path fill="none" stroke="#afd856" stroke-width="2" stroke-dasharray="5,2" d="M165.881,-900C165.881,-900 27.3812,-900 27.3812,-900 21.3812,-900 15.3812,-894 15.3812,-888 15.3812,-888 15.3812,-876 15.3812,-876 15.3812,-870 21.3812,-864 27.3812,-864 27.3812,-864 165.881,-864 165.881,-864 171.881,-864 177.881,-870 177.881,-876 177.881,-876 177.881,-888 177.881,-888 177.881,-894 171.881,-900 165.881,-900"/>
<text text-anchor="middle" x="96.6312" y="-885" font-family="sans" font-size="10.00">samtools_index</text>
<text text-anchor="middle" x="96.6312" y="-874" font-family="sans" font-size="10.00">prefix: output/dedup/file1.chr7</text>
</g>
<!-- 18&#45;&gt;19 -->
<g id="edge27" class="edge"><title>18&#45;&gt;19</title>
<path fill="none" stroke="grey" stroke-width="2" d="M73.2941,-935.697C76.8229,-927.728 81.0871,-918.1 84.9999,-909.264"/>
<polygon fill="grey" stroke="grey" points="88.2073,-910.665 89.0564,-900.104 81.8068,-907.831 88.2073,-910.665"/>
</g>
<!-- 19&#45;&gt;15 -->
<g id="edge21" class="edge"><title>19&#45;&gt;15</title>
<path fill="none" stroke="grey" stroke-width="2" d="M96.6312,-863.697C96.6312,-855.983 96.6312,-846.712 96.6312,-838.112"/>
<polygon fill="grey" stroke="grey" points="100.131,-838.104 96.6312,-828.104 93.1313,-838.104 100.131,-838.104"/>
</g>
<!-- 20 -->
<g id="node21" class="node"><title>20</title>
<path fill="none" stroke="#5692d8" stroke-width="2" stroke-dasharray="5,2" d="M273.631,-972C273.631,-972 199.631,-972 199.631,-972 193.631,-972 187.631,-966 187.631,-960 187.631,-960 187.631,-948 187.631,-948 187.631,-942 193.631,-936 199.631,-936 199.631,-936 273.631,-936 273.631,-936 279.631,-936 285.631,-942 285.631,-948 285.631,-948 285.631,-960 285.631,-960 285.631,-966 279.631,-972 273.631,-972"/>
<text text-anchor="middle" x="236.631" y="-951.5" font-family="sans" font-size="10.00">mark_duplicates</text>
</g>
<!-- 20&#45;&gt;16 -->
<g id="edge22" class="edge"><title>20&#45;&gt;16</title>
<path fill="none" stroke="grey" stroke-width="2" d="M230.378,-935.901C224.671,-917.705 218.172,-888.256 225.631,-864 228.64,-854.215 234.138,-844.616 239.947,-836.334"/>
<polygon fill="grey" stroke="grey" points="242.826,-838.328 246.021,-828.226 237.224,-834.131 242.826,-838.328"/>
</g>
<!-- 21 -->
<g id="node22" class="node"><title>21</title>
<path fill="none" stroke="#afd856" stroke-width="2" stroke-dasharray="5,2" d="M385.881,-900C385.881,-900 247.381,-900 247.381,-900 241.381,-900 235.381,-894 235.381,-888 235.381,-888 235.381,-876 235.381,-876 235.381,-870 241.381,-864 247.381,-864 247.381,-864 385.881,-864 385.881,-864 391.881,-864 397.881,-870 397.881,-876 397.881,-876 397.881,-888 397.881,-888 397.881,-894 391.881,-900 385.881,-900"/>
<text text-anchor="middle" x="316.631" y="-885" font-family="sans" font-size="10.00">samtools_index</text>
<text text-anchor="middle" x="316.631" y="-874" font-family="sans" font-size="10.00">prefix: output/dedup/file2.chr7</text>
</g>
<!-- 20&#45;&gt;21 -->
<g id="edge29" class="edge"><title>20&#45;&gt;21</title>
<path fill="none" stroke="grey" stroke-width="2" d="M256.406,-935.697C266.385,-926.965 278.642,-916.24 289.488,-906.75"/>
<polygon fill="grey" stroke="grey" points="291.862,-909.323 297.083,-900.104 287.253,-904.055 291.862,-909.323"/>
</g>
<!-- 21&#45;&gt;16 -->
<g id="edge23" class="edge"><title>21&#45;&gt;16</title>
<path fill="none" stroke="grey" stroke-width="2" d="M303.036,-863.697C296.508,-855.389 288.563,-845.277 281.385,-836.141"/>
<polygon fill="grey" stroke="grey" points="284.001,-833.805 275.07,-828.104 278.496,-838.13 284.001,-833.805"/>
</g>
<!-- 22 -->
<g id="node23" class="node"><title>22</title>
<path fill="none" stroke="#5692d8" stroke-width="2" stroke-dasharray="5,2" d="M518.631,-972C518.631,-972 444.631,-972 444.631,-972 438.631,-972 432.631,-966 432.631,-960 432.631,-960 432.631,-948 432.631,-948 432.631,-942 438.631,-936 444.631,-936 444.631,-936 518.631,-936 518.631,-936 524.631,-936 530.631,-942 530.631,-948 530.631,-948 530.631,-960 530.631,-960 530.631,-966 524.631,-972 518.631,-972"/>
<text text-anchor="middle" x="481.631" y="-951.5" font-family="sans" font-size="10.00">mark_duplicates</text>
</g>
<!-- 22&#45;&gt;17 -->
<g id="edge24" class="edge"><title>22&#45;&gt;17</title>
<path fill="none" stroke="grey" stroke-width="2" d="M467.466,-935.851C459.941,-925.93 451.134,-912.89 445.631,-900 437.218,-880.293 432.386,-856.488 429.703,-838.458"/>
<polygon fill="grey" stroke="grey" points="433.141,-837.764 428.328,-828.326 426.204,-838.705 433.141,-837.764"/>
</g>
<!-- 23 -->
<g id="node24" class="node"><title>23</title>
<path fill="none" stroke="#afd856" stroke-width="2" stroke-dasharray="5,2" d="M605.881,-900C605.881,-900 467.381,-900 467.381,-900 461.381,-900 455.381,-894 455.381,-888 455.381,-888 455.381,-876 455.381,-876 455.381,-870 461.381,-864 467.381,-864 467.381,-864 605.881,-864 605.881,-864 611.881,-864 617.881,-870 617.881,-876 617.881,-876 617.881,-888 617.881,-888 617.881,-894 611.881,-900 605.881,-900"/>
<text text-anchor="middle" x="536.631" y="-885" font-family="sans" font-size="10.00">samtools_index</text>
<text text-anchor="middle" x="536.631" y="-874" font-family="sans" font-size="10.00">prefix: output/dedup/file3.chr7</text>
</g>
<!-- 22&#45;&gt;23 -->
<g id="edge31" class="edge"><title>22&#45;&gt;23</title>
<path fill="none" stroke="grey" stroke-width="2" d="M495.227,-935.697C501.754,-927.389 509.699,-917.277 516.878,-908.141"/>
<polygon fill="grey" stroke="grey" points="519.766,-910.13 523.192,-900.104 514.262,-905.805 519.766,-910.13"/>
</g>
<!-- 23&#45;&gt;17 -->
<g id="edge25" class="edge"><title>23&#45;&gt;17</title>
<path fill="none" stroke="grey" stroke-width="2" d="M509.722,-863.876C495.473,-854.808 477.785,-843.552 462.396,-833.759"/>
<polygon fill="grey" stroke="grey" points="463.959,-830.606 453.644,-828.19 460.201,-836.511 463.959,-830.606"/>
</g>
<!-- 24 -->
<g id="node25" class="node"><title>24</title>
<path fill="none" stroke="#5673d8" stroke-width="2" stroke-dasharray="5,2" d="M105.631,-1044C105.631,-1044 25.6312,-1044 25.6312,-1044 19.6312,-1044 13.6312,-1038 13.6312,-1032 13.6312,-1032 13.6312,-1020 13.6312,-1020 13.6312,-1014 19.6312,-1008 25.6312,-1008 25.6312,-1008 105.631,-1008 105.631,-1008 111.631,-1008 117.631,-1014 117.631,-1020 117.631,-1020 117.631,-1032 117.631,-1032 117.631,-1038 111.631,-1044 105.631,-1044"/>
<text text-anchor="middle" x="65.6312" y="-1029" font-family="sans" font-size="10.00">add_readgroup</text>
<text text-anchor="middle" x="65.6312" y="-1018" font-family="sans" font-size="10.00">sample: file1.chr7</text>
</g>
<!-- 24&#45;&gt;18 -->
<g id="edge26" class="edge"><title>24&#45;&gt;18</title>
<path fill="none" stroke="grey" stroke-width="2" d="M65.6312,-1007.7C65.6312,-999.983 65.6312,-990.712 65.6312,-982.112"/>
<polygon fill="grey" stroke="grey" points="69.1313,-982.104 65.6312,-972.104 62.1313,-982.104 69.1313,-982.104"/>
</g>
<!-- 25 -->
<g id="node26" class="node"><title>25</title>
<path fill="none" stroke="#5673d8" stroke-width="2" stroke-dasharray="5,2" d="M276.631,-1044C276.631,-1044 196.631,-1044 196.631,-1044 190.631,-1044 184.631,-1038 184.631,-1032 184.631,-1032 184.631,-1020 184.631,-1020 184.631,-1014 190.631,-1008 196.631,-1008 196.631,-1008 276.631,-1008 276.631,-1008 282.631,-1008 288.631,-1014 288.631,-1020 288.631,-1020 288.631,-1032 288.631,-1032 288.631,-1038 282.631,-1044 276.631,-1044"/>
<text text-anchor="middle" x="236.631" y="-1029" font-family="sans" font-size="10.00">add_readgroup</text>
<text text-anchor="middle" x="236.631" y="-1018" font-family="sans" font-size="10.00">sample: file2.chr7</text>
</g>
<!-- 25&#45;&gt;20 -->
<g id="edge28" class="edge"><title>25&#45;&gt;20</title>
<path fill="none" stroke="grey" stroke-width="2" d="M236.631,-1007.7C236.631,-999.983 236.631,-990.712 236.631,-982.112"/>
<polygon fill="grey" stroke="grey" points="240.131,-982.104 236.631,-972.104 233.131,-982.104 240.131,-982.104"/>
</g>
<!-- 26 -->
<g id="node27" class="node"><title>26</title>
<path fill="none" stroke="#5673d8" stroke-width="2" stroke-dasharray="5,2" d="M521.631,-1044C521.631,-1044 441.631,-1044 441.631,-1044 435.631,-1044 429.631,-1038 429.631,-1032 429.631,-1032 429.631,-1020 429.631,-1020 429.631,-1014 435.631,-1008 441.631,-1008 441.631,-1008 521.631,-1008 521.631,-1008 527.631,-1008 533.631,-1014 533.631,-1020 533.631,-1020 533.631,-1032 533.631,-1032 533.631,-1038 527.631,-1044 521.631,-1044"/>
<text text-anchor="middle" x="481.631" y="-1029" font-family="sans" font-size="10.00">add_readgroup</text>
<text text-anchor="middle" x="481.631" y="-1018" font-family="sans" font-size="10.00">sample: file3.chr7</text>
</g>
<!-- 26&#45;&gt;22 -->
<g id="edge30" class="edge"><title>26&#45;&gt;22</title>
<path fill="none" stroke="grey" stroke-width="2" d="M481.631,-1007.7C481.631,-999.983 481.631,-990.712 481.631,-982.112"/>
<polygon fill="grey" stroke="grey" points="485.131,-982.104 481.631,-972.104 478.131,-982.104 485.131,-982.104"/>
</g>
</g>
</svg>
