<?xml version="1.0" encoding="UTF-8" standalone="no"?>
<!DOCTYPE svg PUBLIC "-//W3C//DTD SVG 1.1//EN"
 "http://www.w3.org/Graphics/SVG/1.1/DTD/svg11.dtd">
<!-- Generated by graphviz version 2.40.1 (20161225.0304)
 -->
<!-- Title: snakemake_dag Pages: 1 -->
<svg width="628pt" height="1124pt"
 viewBox="0.00 0.00 628.10 1124.00" xmlns="http://www.w3.org/2000/svg" xmlns:xlink="http://www.w3.org/1999/xlink">
<g id="graph0" class="graph" transform="scale(1 1) rotate(0) translate(4 1120)">
<title>snakemake_dag</title>
<polygon fill="#ffffff" stroke="transparent" points="-4,4 -4,-1120 624.1008,-1120 624.1008,4 -4,4"/>
<!-- 0 -->
<g id="node1" class="node">
<title>0</title>
<path fill="none" stroke="#d8c356" stroke-width="2" d="M276.6008,-36C276.6008,-36 246.6008,-36 246.6008,-36 240.6008,-36 234.6008,-30 234.6008,-24 234.6008,-24 234.6008,-12 234.6008,-12 234.6008,-6 240.6008,0 246.6008,0 246.6008,0 276.6008,0 276.6008,0 282.6008,0 288.6008,-6 288.6008,-12 288.6008,-12 288.6008,-24 288.6008,-24 288.6008,-30 282.6008,-36 276.6008,-36"/>
<text text-anchor="middle" x="261.6008" y="-15.5" font-family="sans" font-size="10.00" fill="#000000">all</text>
</g>
<!-- 1 -->
<g id="node2" class="node">
<title>1</title>
<path fill="none" stroke="#80d856" stroke-width="2" stroke-dasharray="5,2" d="M276.6008,-252C276.6008,-252 246.6008,-252 246.6008,-252 240.6008,-252 234.6008,-246 234.6008,-240 234.6008,-240 234.6008,-228 234.6008,-228 234.6008,-222 240.6008,-216 246.6008,-216 246.6008,-216 276.6008,-216 276.6008,-216 282.6008,-216 288.6008,-222 288.6008,-228 288.6008,-228 288.6008,-240 288.6008,-240 288.6008,-246 282.6008,-252 276.6008,-252"/>
<text text-anchor="middle" x="261.6008" y="-231.5" font-family="sans" font-size="10.00" fill="#000000">snpeff</text>
</g>
<!-- 1&#45;&gt;0 -->
<g id="edge1" class="edge">
<title>1&#45;&gt;0</title>
<path fill="none" stroke="#c0c0c0" stroke-width="2" d="M246.2311,-215.7135C222.7074,-185.3784 182.6884,-122.9434 204.6008,-72 209.3916,-60.862 217.7342,-50.945 226.5822,-42.745"/>
<polygon fill="#c0c0c0" stroke="#c0c0c0" stroke-width="2" points="229.124,-45.1748 234.4112,-35.9935 224.5524,-39.8737 229.124,-45.1748"/>
</g>
<!-- 3 -->
<g id="node4" class="node">
<title>3</title>
<path fill="none" stroke="#56c1d8" stroke-width="2" d="M297.1008,-108C297.1008,-108 226.1008,-108 226.1008,-108 220.1008,-108 214.1008,-102 214.1008,-96 214.1008,-96 214.1008,-84 214.1008,-84 214.1008,-78 220.1008,-72 226.1008,-72 226.1008,-72 297.1008,-72 297.1008,-72 303.1008,-72 309.1008,-78 309.1008,-84 309.1008,-84 309.1008,-96 309.1008,-96 309.1008,-102 303.1008,-108 297.1008,-108"/>
<text text-anchor="middle" x="261.6008" y="-87.5" font-family="sans" font-size="10.00" fill="#000000">concordance_all</text>
</g>
<!-- 1&#45;&gt;3 -->
<g id="edge6" class="edge">
<title>1&#45;&gt;3</title>
<path fill="none" stroke="#c0c0c0" stroke-width="2" d="M261.6008,-215.7623C261.6008,-191.201 261.6008,-147.2474 261.6008,-118.3541"/>
<polygon fill="#c0c0c0" stroke="#c0c0c0" stroke-width="2" points="265.1009,-118.0896 261.6008,-108.0896 258.1009,-118.0897 265.1009,-118.0896"/>
</g>
<!-- 5 -->
<g id="node6" class="node">
<title>5</title>
<path fill="none" stroke="#d87556" stroke-width="2" d="M363.1008,-180C363.1008,-180 320.1008,-180 320.1008,-180 314.1008,-180 308.1008,-174 308.1008,-168 308.1008,-168 308.1008,-156 308.1008,-156 308.1008,-150 314.1008,-144 320.1008,-144 320.1008,-144 363.1008,-144 363.1008,-144 369.1008,-144 375.1008,-150 375.1008,-156 375.1008,-156 375.1008,-168 375.1008,-168 375.1008,-174 369.1008,-180 363.1008,-180"/>
<text text-anchor="middle" x="341.6008" y="-159.5" font-family="sans" font-size="10.00" fill="#000000">vcf_to_tsv</text>
</g>
<!-- 1&#45;&gt;5 -->
<g id="edge9" class="edge">
<title>1&#45;&gt;5</title>
<path fill="none" stroke="#c0c0c0" stroke-width="2" d="M281.7882,-215.8314C291.4522,-207.1337 303.1805,-196.5783 313.6825,-187.1265"/>
<polygon fill="#c0c0c0" stroke="#c0c0c0" stroke-width="2" points="316.3283,-189.454 321.4199,-180.1628 311.6456,-184.251 316.3283,-189.454"/>
</g>
<!-- 2 -->
<g id="node3" class="node">
<title>2</title>
<path fill="none" stroke="#d88d56" stroke-width="2" d="M380.1008,-108C380.1008,-108 339.1008,-108 339.1008,-108 333.1008,-108 327.1008,-102 327.1008,-96 327.1008,-96 327.1008,-84 327.1008,-84 327.1008,-78 333.1008,-72 339.1008,-72 339.1008,-72 380.1008,-72 380.1008,-72 386.1008,-72 392.1008,-78 392.1008,-84 392.1008,-84 392.1008,-96 392.1008,-96 392.1008,-102 386.1008,-108 380.1008,-108"/>
<text text-anchor="middle" x="359.6008" y="-87.5" font-family="sans" font-size="10.00" fill="#000000">plot_stats</text>
</g>
<!-- 2&#45;&gt;0 -->
<g id="edge2" class="edge">
<title>2&#45;&gt;0</title>
<path fill="none" stroke="#c0c0c0" stroke-width="2" d="M334.8713,-71.8314C322.6847,-62.8779 307.8185,-51.9558 294.6697,-42.2955"/>
<polygon fill="#c0c0c0" stroke="#c0c0c0" stroke-width="2" points="296.4536,-39.263 286.3225,-36.1628 292.309,-44.9042 296.4536,-39.263"/>
</g>
<!-- 3&#45;&gt;0 -->
<g id="edge3" class="edge">
<title>3&#45;&gt;0</title>
<path fill="none" stroke="#c0c0c0" stroke-width="2" d="M261.6008,-71.8314C261.6008,-64.131 261.6008,-54.9743 261.6008,-46.4166"/>
<polygon fill="#c0c0c0" stroke="#c0c0c0" stroke-width="2" points="265.1009,-46.4132 261.6008,-36.4133 258.1009,-46.4133 265.1009,-46.4132"/>
</g>
<!-- 4 -->
<g id="node5" class="node">
<title>4</title>
<path fill="none" stroke="#5673d8" stroke-width="2" stroke-dasharray="5,2" d="M287.6008,-324C287.6008,-324 235.6008,-324 235.6008,-324 229.6008,-324 223.6008,-318 223.6008,-312 223.6008,-312 223.6008,-300 223.6008,-300 223.6008,-294 229.6008,-288 235.6008,-288 235.6008,-288 287.6008,-288 287.6008,-288 293.6008,-288 299.6008,-294 299.6008,-300 299.6008,-300 299.6008,-312 299.6008,-312 299.6008,-318 293.6008,-324 287.6008,-324"/>
<text text-anchor="middle" x="261.6008" y="-303.5" font-family="sans" font-size="10.00" fill="#000000">merge_calls</text>
</g>
<!-- 4&#45;&gt;1 -->
<g id="edge4" class="edge">
<title>4&#45;&gt;1</title>
<path fill="none" stroke="#c0c0c0" stroke-width="2" d="M261.6008,-287.8314C261.6008,-280.131 261.6008,-270.9743 261.6008,-262.4166"/>
<polygon fill="#c0c0c0" stroke="#c0c0c0" stroke-width="2" points="265.1009,-262.4132 261.6008,-252.4133 258.1009,-262.4133 265.1009,-262.4132"/>
</g>
<!-- 5&#45;&gt;2 -->
<g id="edge5" class="edge">
<title>5&#45;&gt;2</title>
<path fill="none" stroke="#c0c0c0" stroke-width="2" d="M346.143,-143.8314C348.0893,-136.0463 350.4076,-126.7729 352.5672,-118.1347"/>
<polygon fill="#c0c0c0" stroke="#c0c0c0" stroke-width="2" points="355.9676,-118.9636 354.9975,-108.4133 349.1766,-117.2658 355.9676,-118.9636"/>
</g>
<!-- 6 -->
<g id="node7" class="node">
<title>6</title>
<path fill="none" stroke="#b6d856" stroke-width="2" stroke-dasharray="5,2" d="M232.6008,-396C232.6008,-396 162.6008,-396 162.6008,-396 156.6008,-396 150.6008,-390 150.6008,-384 150.6008,-384 150.6008,-372 150.6008,-372 150.6008,-366 156.6008,-360 162.6008,-360 162.6008,-360 232.6008,-360 232.6008,-360 238.6008,-360 244.6008,-366 244.6008,-372 244.6008,-372 244.6008,-384 244.6008,-384 244.6008,-390 238.6008,-396 232.6008,-396"/>
<text text-anchor="middle" x="197.6008" y="-375.5" font-family="sans" font-size="10.00" fill="#000000">hard_filter_calls</text>
</g>
<!-- 6&#45;&gt;4 -->
<g id="edge7" class="edge">
<title>6&#45;&gt;4</title>
<path fill="none" stroke="#c0c0c0" stroke-width="2" d="M213.7507,-359.8314C221.2725,-351.3694 230.3574,-341.1489 238.5812,-331.8971"/>
<polygon fill="#c0c0c0" stroke="#c0c0c0" stroke-width="2" points="241.2058,-334.2127 245.2335,-324.4133 235.9739,-329.5621 241.2058,-334.2127"/>
</g>
<!-- 7 -->
<g id="node8" class="node">
<title>7</title>
<path fill="none" stroke="#61d856" stroke-width="2" stroke-dasharray="5,2" d="M376.1008,-396C376.1008,-396 275.1008,-396 275.1008,-396 269.1008,-396 263.1008,-390 263.1008,-384 263.1008,-384 263.1008,-372 263.1008,-372 263.1008,-366 269.1008,-360 275.1008,-360 275.1008,-360 376.1008,-360 376.1008,-360 382.1008,-360 388.1008,-366 388.1008,-372 388.1008,-372 388.1008,-384 388.1008,-384 388.1008,-390 382.1008,-396 376.1008,-396"/>
<text text-anchor="middle" x="325.6008" y="-375.5" font-family="sans" font-size="10.00" fill="#000000">recalibrate_calls_snps</text>
</g>
<!-- 7&#45;&gt;4 -->
<g id="edge8" class="edge">
<title>7&#45;&gt;4</title>
<path fill="none" stroke="#c0c0c0" stroke-width="2" d="M309.4509,-359.8314C301.9292,-351.3694 292.8443,-341.1489 284.6205,-331.8971"/>
<polygon fill="#c0c0c0" stroke="#c0c0c0" stroke-width="2" points="287.2278,-329.5621 277.9682,-324.4133 281.9959,-334.2127 287.2278,-329.5621"/>
</g>
<!-- 8 -->
<g id="node9" class="node">
<title>8</title>
<path fill="none" stroke="#56d882" stroke-width="2" stroke-dasharray="5,2" d="M242.1008,-468C242.1008,-468 177.1008,-468 177.1008,-468 171.1008,-468 165.1008,-462 165.1008,-456 165.1008,-456 165.1008,-444 165.1008,-444 165.1008,-438 171.1008,-432 177.1008,-432 177.1008,-432 242.1008,-432 242.1008,-432 248.1008,-432 254.1008,-438 254.1008,-444 254.1008,-444 254.1008,-456 254.1008,-456 254.1008,-462 248.1008,-468 242.1008,-468"/>
<text text-anchor="middle" x="209.6008" y="-453" font-family="sans" font-size="10.00" fill="#000000">select_calls</text>
<text text-anchor="middle" x="209.6008" y="-442" font-family="sans" font-size="10.00" fill="#000000">vartype: indels</text>
</g>
<!-- 8&#45;&gt;6 -->
<g id="edge10" class="edge">
<title>8&#45;&gt;6</title>
<path fill="none" stroke="#c0c0c0" stroke-width="2" d="M206.5727,-431.8314C205.2893,-424.131 203.7632,-414.9743 202.337,-406.4166"/>
<polygon fill="#c0c0c0" stroke="#c0c0c0" stroke-width="2" points="205.7662,-405.7018 200.6697,-396.4133 198.8614,-406.8526 205.7662,-405.7018"/>
</g>
<!-- 9 -->
<g id="node10" class="node">
<title>9</title>
<path fill="none" stroke="#56d882" stroke-width="2" stroke-dasharray="5,2" d="M349.1008,-468C349.1008,-468 290.1008,-468 290.1008,-468 284.1008,-468 278.1008,-462 278.1008,-456 278.1008,-456 278.1008,-444 278.1008,-444 278.1008,-438 284.1008,-432 290.1008,-432 290.1008,-432 349.1008,-432 349.1008,-432 355.1008,-432 361.1008,-438 361.1008,-444 361.1008,-444 361.1008,-456 361.1008,-456 361.1008,-462 355.1008,-468 349.1008,-468"/>
<text text-anchor="middle" x="319.6008" y="-453" font-family="sans" font-size="10.00" fill="#000000">select_calls</text>
<text text-anchor="middle" x="319.6008" y="-442" font-family="sans" font-size="10.00" fill="#000000">vartype: snvs</text>
</g>
<!-- 9&#45;&gt;7 -->
<g id="edge11" class="edge">
<title>9&#45;&gt;7</title>
<path fill="none" stroke="#c0c0c0" stroke-width="2" d="M321.1149,-431.8314C321.7566,-424.131 322.5197,-414.9743 323.2328,-406.4166"/>
<polygon fill="#c0c0c0" stroke="#c0c0c0" stroke-width="2" points="326.7238,-406.6694 324.0664,-396.4133 319.748,-406.088 326.7238,-406.6694"/>
</g>
<!-- 10 -->
<g id="node11" class="node">
<title>10</title>
<path fill="none" stroke="#56a9d8" stroke-width="2" stroke-dasharray="5,2" d="M296.1008,-540C296.1008,-540 227.1008,-540 227.1008,-540 221.1008,-540 215.1008,-534 215.1008,-528 215.1008,-528 215.1008,-516 215.1008,-516 215.1008,-510 221.1008,-504 227.1008,-504 227.1008,-504 296.1008,-504 296.1008,-504 302.1008,-504 308.1008,-510 308.1008,-516 308.1008,-516 308.1008,-528 308.1008,-528 308.1008,-534 302.1008,-540 296.1008,-540"/>
<text text-anchor="middle" x="261.6008" y="-519.5" font-family="sans" font-size="10.00" fill="#000000">merge_variants</text>
</g>
<!-- 10&#45;&gt;8 -->
<g id="edge12" class="edge">
<title>10&#45;&gt;8</title>
<path fill="none" stroke="#c0c0c0" stroke-width="2" d="M248.4791,-503.8314C242.551,-495.6232 235.4279,-485.7606 228.9075,-476.7323"/>
<polygon fill="#c0c0c0" stroke="#c0c0c0" stroke-width="2" points="231.5916,-474.4708 222.8993,-468.4133 225.9169,-478.5693 231.5916,-474.4708"/>
</g>
<!-- 10&#45;&gt;9 -->
<g id="edge13" class="edge">
<title>10&#45;&gt;9</title>
<path fill="none" stroke="#c0c0c0" stroke-width="2" d="M276.2367,-503.8314C282.917,-495.5386 290.9577,-485.557 298.2912,-476.4533"/>
<polygon fill="#c0c0c0" stroke="#c0c0c0" stroke-width="2" points="301.2203,-478.3965 304.7679,-468.4133 295.769,-474.0052 301.2203,-478.3965"/>
</g>
<!-- 11 -->
<g id="node12" class="node">
<title>11</title>
<path fill="none" stroke="#568ad8" stroke-width="2" stroke-dasharray="5,2" d="M303.1008,-612C303.1008,-612 220.1008,-612 220.1008,-612 214.1008,-612 208.1008,-606 208.1008,-600 208.1008,-600 208.1008,-588 208.1008,-588 208.1008,-582 214.1008,-576 220.1008,-576 220.1008,-576 303.1008,-576 303.1008,-576 309.1008,-576 315.1008,-582 315.1008,-588 315.1008,-588 315.1008,-600 315.1008,-600 315.1008,-606 309.1008,-612 303.1008,-612"/>
<text text-anchor="middle" x="261.6008" y="-591.5" font-family="sans" font-size="10.00" fill="#000000">genotype_variants</text>
</g>
<!-- 11&#45;&gt;10 -->
<g id="edge14" class="edge">
<title>11&#45;&gt;10</title>
<path fill="none" stroke="#c0c0c0" stroke-width="2" d="M261.6008,-575.8314C261.6008,-568.131 261.6008,-558.9743 261.6008,-550.4166"/>
<polygon fill="#c0c0c0" stroke="#c0c0c0" stroke-width="2" points="265.1009,-550.4132 261.6008,-540.4133 258.1009,-550.4133 265.1009,-550.4132"/>
</g>
<!-- 12 -->
<g id="node13" class="node">
<title>12</title>
<path fill="none" stroke="#56d89a" stroke-width="2" stroke-dasharray="5,2" d="M292.6008,-684C292.6008,-684 230.6008,-684 230.6008,-684 224.6008,-684 218.6008,-678 218.6008,-672 218.6008,-672 218.6008,-660 218.6008,-660 218.6008,-654 224.6008,-648 230.6008,-648 230.6008,-648 292.6008,-648 292.6008,-648 298.6008,-648 304.6008,-654 304.6008,-660 304.6008,-660 304.6008,-672 304.6008,-672 304.6008,-678 298.6008,-684 292.6008,-684"/>
<text text-anchor="middle" x="261.6008" y="-663.5" font-family="sans" font-size="10.00" fill="#000000">combine_calls</text>
</g>
<!-- 12&#45;&gt;11 -->
<g id="edge15" class="edge">
<title>12&#45;&gt;11</title>
<path fill="none" stroke="#c0c0c0" stroke-width="2" d="M261.6008,-647.8314C261.6008,-640.131 261.6008,-630.9743 261.6008,-622.4166"/>
<polygon fill="#c0c0c0" stroke="#c0c0c0" stroke-width="2" points="265.1009,-622.4132 261.6008,-612.4133 258.1009,-622.4133 265.1009,-622.4132"/>
</g>
<!-- 13 -->
<g id="node14" class="node">
<title>13</title>
<path fill="none" stroke="#56d8d0" stroke-width="2" stroke-dasharray="5,2" d="M188.6008,-756C188.6008,-756 134.6008,-756 134.6008,-756 128.6008,-756 122.6008,-750 122.6008,-744 122.6008,-744 122.6008,-732 122.6008,-732 122.6008,-726 128.6008,-720 134.6008,-720 134.6008,-720 188.6008,-720 188.6008,-720 194.6008,-720 200.6008,-726 200.6008,-732 200.6008,-732 200.6008,-744 200.6008,-744 200.6008,-750 194.6008,-756 188.6008,-756"/>
<text text-anchor="middle" x="161.6008" y="-735.5" font-family="sans" font-size="10.00" fill="#000000">concordance</text>
</g>
<!-- 13&#45;&gt;12 -->
<g id="edge16" class="edge">
<title>13&#45;&gt;12</title>
<path fill="none" stroke="#c0c0c0" stroke-width="2" d="M186.8351,-719.8314C199.3888,-710.7927 214.7292,-699.7476 228.24,-690.0198"/>
<polygon fill="#c0c0c0" stroke="#c0c0c0" stroke-width="2" points="230.3044,-692.8463 236.3747,-684.1628 226.2143,-687.1655 230.3044,-692.8463"/>
</g>
<!-- 14 -->
<g id="node15" class="node">
<title>14</title>
<path fill="none" stroke="#56d8d0" stroke-width="2" stroke-dasharray="5,2" d="M322.6008,-756C322.6008,-756 268.6008,-756 268.6008,-756 262.6008,-756 256.6008,-750 256.6008,-744 256.6008,-744 256.6008,-732 256.6008,-732 256.6008,-726 262.6008,-720 268.6008,-720 268.6008,-720 322.6008,-720 322.6008,-720 328.6008,-720 334.6008,-726 334.6008,-732 334.6008,-732 334.6008,-744 334.6008,-744 334.6008,-750 328.6008,-756 322.6008,-756"/>
<text text-anchor="middle" x="295.6008" y="-735.5" font-family="sans" font-size="10.00" fill="#000000">concordance</text>
</g>
<!-- 14&#45;&gt;12 -->
<g id="edge17" class="edge">
<title>14&#45;&gt;12</title>
<path fill="none" stroke="#c0c0c0" stroke-width="2" d="M287.0212,-719.8314C283.265,-711.8771 278.7751,-702.369 274.6211,-693.5723"/>
<polygon fill="#c0c0c0" stroke="#c0c0c0" stroke-width="2" points="277.731,-691.9612 270.296,-684.4133 271.4012,-694.9503 277.731,-691.9612"/>
</g>
<!-- 15 -->
<g id="node16" class="node">
<title>15</title>
<path fill="none" stroke="#56d8d0" stroke-width="2" stroke-dasharray="5,2" d="M456.6008,-756C456.6008,-756 402.6008,-756 402.6008,-756 396.6008,-756 390.6008,-750 390.6008,-744 390.6008,-744 390.6008,-732 390.6008,-732 390.6008,-726 396.6008,-720 402.6008,-720 402.6008,-720 456.6008,-720 456.6008,-720 462.6008,-720 468.6008,-726 468.6008,-732 468.6008,-732 468.6008,-744 468.6008,-744 468.6008,-750 462.6008,-756 456.6008,-756"/>
<text text-anchor="middle" x="429.6008" y="-735.5" font-family="sans" font-size="10.00" fill="#000000">concordance</text>
</g>
<!-- 15&#45;&gt;12 -->
<g id="edge18" class="edge">
<title>15&#45;&gt;12</title>
<path fill="none" stroke="#c0c0c0" stroke-width="2" d="M390.2123,-721.1192C367.165,-711.2418 337.8057,-698.6592 312.9587,-688.0105"/>
<polygon fill="#c0c0c0" stroke="#c0c0c0" stroke-width="2" points="314.2495,-684.7559 303.6793,-684.0336 311.4921,-691.1899 314.2495,-684.7559"/>
</g>
<!-- 16 -->
<g id="node17" class="node">
<title>16</title>
<path fill="none" stroke="#ced856" stroke-width="2" stroke-dasharray="5,2" d="M124.1008,-828C124.1008,-828 69.1008,-828 69.1008,-828 63.1008,-828 57.1008,-822 57.1008,-816 57.1008,-816 57.1008,-804 57.1008,-804 57.1008,-798 63.1008,-792 69.1008,-792 69.1008,-792 124.1008,-792 124.1008,-792 130.1008,-792 136.1008,-798 136.1008,-804 136.1008,-804 136.1008,-816 136.1008,-816 136.1008,-822 130.1008,-828 124.1008,-828"/>
<text text-anchor="middle" x="96.6008" y="-813" font-family="sans" font-size="10.00" fill="#000000">call_variants</text>
<text text-anchor="middle" x="96.6008" y="-802" font-family="sans" font-size="10.00" fill="#000000">contig: 7</text>
</g>
<!-- 16&#45;&gt;12 -->
<g id="edge19" class="edge">
<title>16&#45;&gt;12</title>
<path fill="none" stroke="#c0c0c0" stroke-width="2" d="M95.0932,-791.9121C94.4422,-771.992 96.5191,-740.1239 113.6008,-720 137.1586,-692.2468 176.2254,-678.7554 208.307,-672.1979"/>
<polygon fill="#c0c0c0" stroke="#c0c0c0" stroke-width="2" points="209.262,-675.5802 218.4492,-670.3032 207.9765,-668.6992 209.262,-675.5802"/>
</g>
<!-- 16&#45;&gt;13 -->
<g id="edge22" class="edge">
<title>16&#45;&gt;13</title>
<path fill="none" stroke="#c0c0c0" stroke-width="2" d="M113.0031,-791.8314C120.6424,-783.3694 129.8692,-773.1489 138.2215,-763.8971"/>
<polygon fill="#c0c0c0" stroke="#c0c0c0" stroke-width="2" points="140.8746,-766.1813 144.9778,-756.4133 135.6787,-761.4906 140.8746,-766.1813"/>
</g>
<!-- 17 -->
<g id="node18" class="node">
<title>17</title>
<path fill="none" stroke="#ced856" stroke-width="2" stroke-dasharray="5,2" d="M290.1008,-828C290.1008,-828 235.1008,-828 235.1008,-828 229.1008,-828 223.1008,-822 223.1008,-816 223.1008,-816 223.1008,-804 223.1008,-804 223.1008,-798 229.1008,-792 235.1008,-792 235.1008,-792 290.1008,-792 290.1008,-792 296.1008,-792 302.1008,-798 302.1008,-804 302.1008,-804 302.1008,-816 302.1008,-816 302.1008,-822 296.1008,-828 290.1008,-828"/>
<text text-anchor="middle" x="262.6008" y="-813" font-family="sans" font-size="10.00" fill="#000000">call_variants</text>
<text text-anchor="middle" x="262.6008" y="-802" font-family="sans" font-size="10.00" fill="#000000">contig: 7</text>
</g>
<!-- 17&#45;&gt;12 -->
<g id="edge20" class="edge">
<title>17&#45;&gt;12</title>
<path fill="none" stroke="#c0c0c0" stroke-width="2" d="M256.206,-791.7647C252.9162,-781.4187 249.2566,-768.1474 247.6008,-756 245.4399,-740.1466 245.5769,-735.8715 247.6008,-720 248.6862,-711.4887 250.6971,-702.4011 252.8628,-694.1555"/>
<polygon fill="#c0c0c0" stroke="#c0c0c0" stroke-width="2" points="256.3053,-694.8414 255.631,-684.2681 249.5645,-692.9542 256.3053,-694.8414"/>
</g>
<!-- 17&#45;&gt;14 -->
<g id="edge23" class="edge">
<title>17&#45;&gt;14</title>
<path fill="none" stroke="#c0c0c0" stroke-width="2" d="M270.9281,-791.8314C274.5738,-783.8771 278.9317,-774.369 282.9635,-765.5723"/>
<polygon fill="#c0c0c0" stroke="#c0c0c0" stroke-width="2" points="286.1766,-766.9622 287.1614,-756.4133 279.8131,-764.0456 286.1766,-766.9622"/>
</g>
<!-- 18 -->
<g id="node19" class="node">
<title>18</title>
<path fill="none" stroke="#ced856" stroke-width="2" stroke-dasharray="5,2" d="M456.1008,-828C456.1008,-828 401.1008,-828 401.1008,-828 395.1008,-828 389.1008,-822 389.1008,-816 389.1008,-816 389.1008,-804 389.1008,-804 389.1008,-798 395.1008,-792 401.1008,-792 401.1008,-792 456.1008,-792 456.1008,-792 462.1008,-792 468.1008,-798 468.1008,-804 468.1008,-804 468.1008,-816 468.1008,-816 468.1008,-822 462.1008,-828 456.1008,-828"/>
<text text-anchor="middle" x="428.6008" y="-813" font-family="sans" font-size="10.00" fill="#000000">call_variants</text>
<text text-anchor="middle" x="428.6008" y="-802" font-family="sans" font-size="10.00" fill="#000000">contig: 7</text>
</g>
<!-- 18&#45;&gt;12 -->
<g id="edge21" class="edge">
<title>18&#45;&gt;12</title>
<path fill="none" stroke="#c0c0c0" stroke-width="2" d="M413.7228,-791.9127C397.5584,-772.8483 370.4364,-742.5188 343.6008,-720 330.6402,-709.1242 315.4028,-698.5642 301.6025,-689.71"/>
<polygon fill="#c0c0c0" stroke="#c0c0c0" stroke-width="2" points="303.1062,-686.5207 292.7796,-684.1517 299.375,-692.4434 303.1062,-686.5207"/>
</g>
<!-- 18&#45;&gt;15 -->
<g id="edge24" class="edge">
<title>18&#45;&gt;15</title>
<path fill="none" stroke="#c0c0c0" stroke-width="2" d="M428.8532,-791.8314C428.9601,-784.131 429.0873,-774.9743 429.2062,-766.4166"/>
<polygon fill="#c0c0c0" stroke="#c0c0c0" stroke-width="2" points="432.7058,-766.4609 429.3451,-756.4133 425.7065,-766.3637 432.7058,-766.4609"/>
</g>
<!-- 19 -->
<g id="node20" class="node">
<title>19</title>
<path fill="none" stroke="#56d8b9" stroke-width="2" stroke-dasharray="5,2" d="M157.1008,-900C157.1008,-900 36.1008,-900 36.1008,-900 30.1008,-900 24.1008,-894 24.1008,-888 24.1008,-888 24.1008,-876 24.1008,-876 24.1008,-870 30.1008,-864 36.1008,-864 36.1008,-864 157.1008,-864 157.1008,-864 163.1008,-864 169.1008,-870 169.1008,-876 169.1008,-876 169.1008,-888 169.1008,-888 169.1008,-894 163.1008,-900 157.1008,-900"/>
<text text-anchor="middle" x="96.6008" y="-879.5" font-family="sans" font-size="10.00" fill="#000000">recalibrate_base_qualities</text>
</g>
<!-- 19&#45;&gt;16 -->
<g id="edge25" class="edge">
<title>19&#45;&gt;16</title>
<path fill="none" stroke="#c0c0c0" stroke-width="2" d="M96.6008,-863.8314C96.6008,-856.131 96.6008,-846.9743 96.6008,-838.4166"/>
<polygon fill="#c0c0c0" stroke="#c0c0c0" stroke-width="2" points="100.1009,-838.4132 96.6008,-828.4133 93.1009,-838.4133 100.1009,-838.4132"/>
</g>
<!-- 20 -->
<g id="node21" class="node">
<title>20</title>
<path fill="none" stroke="#56d8b9" stroke-width="2" stroke-dasharray="5,2" d="M323.1008,-900C323.1008,-900 202.1008,-900 202.1008,-900 196.1008,-900 190.1008,-894 190.1008,-888 190.1008,-888 190.1008,-876 190.1008,-876 190.1008,-870 196.1008,-864 202.1008,-864 202.1008,-864 323.1008,-864 323.1008,-864 329.1008,-864 335.1008,-870 335.1008,-876 335.1008,-876 335.1008,-888 335.1008,-888 335.1008,-894 329.1008,-900 323.1008,-900"/>
<text text-anchor="middle" x="262.6008" y="-879.5" font-family="sans" font-size="10.00" fill="#000000">recalibrate_base_qualities</text>
</g>
<!-- 20&#45;&gt;17 -->
<g id="edge26" class="edge">
<title>20&#45;&gt;17</title>
<path fill="none" stroke="#c0c0c0" stroke-width="2" d="M262.6008,-863.8314C262.6008,-856.131 262.6008,-846.9743 262.6008,-838.4166"/>
<polygon fill="#c0c0c0" stroke="#c0c0c0" stroke-width="2" points="266.1009,-838.4132 262.6008,-828.4133 259.1009,-838.4133 266.1009,-838.4132"/>
</g>
<!-- 21 -->
<g id="node22" class="node">
<title>21</title>
<path fill="none" stroke="#56d8b9" stroke-width="2" stroke-dasharray="5,2" d="M489.1008,-900C489.1008,-900 368.1008,-900 368.1008,-900 362.1008,-900 356.1008,-894 356.1008,-888 356.1008,-888 356.1008,-876 356.1008,-876 356.1008,-870 362.1008,-864 368.1008,-864 368.1008,-864 489.1008,-864 489.1008,-864 495.1008,-864 501.1008,-870 501.1008,-876 501.1008,-876 501.1008,-888 501.1008,-888 501.1008,-894 495.1008,-900 489.1008,-900"/>
<text text-anchor="middle" x="428.6008" y="-879.5" font-family="sans" font-size="10.00" fill="#000000">recalibrate_base_qualities</text>
</g>
<!-- 21&#45;&gt;18 -->
<g id="edge27" class="edge">
<title>21&#45;&gt;18</title>
<path fill="none" stroke="#c0c0c0" stroke-width="2" d="M428.6008,-863.8314C428.6008,-856.131 428.6008,-846.9743 428.6008,-838.4166"/>
<polygon fill="#c0c0c0" stroke="#c0c0c0" stroke-width="2" points="432.1009,-838.4132 428.6008,-828.4133 425.1009,-838.4133 432.1009,-838.4132"/>
</g>
<!-- 22 -->
<g id="node23" class="node">
<title>22</title>
<path fill="none" stroke="#d85656" stroke-width="2" stroke-dasharray="5,2" d="M103.6008,-1044C103.6008,-1044 29.6008,-1044 29.6008,-1044 23.6008,-1044 17.6008,-1038 17.6008,-1032 17.6008,-1032 17.6008,-1020 17.6008,-1020 17.6008,-1014 23.6008,-1008 29.6008,-1008 29.6008,-1008 103.6008,-1008 103.6008,-1008 109.6008,-1008 115.6008,-1014 115.6008,-1020 115.6008,-1020 115.6008,-1032 115.6008,-1032 115.6008,-1038 109.6008,-1044 103.6008,-1044"/>
<text text-anchor="middle" x="66.6008" y="-1023.5" font-family="sans" font-size="10.00" fill="#000000">mark_duplicates</text>
</g>
<!-- 22&#45;&gt;19 -->
<g id="edge28" class="edge">
<title>22&#45;&gt;19</title>
<path fill="none" stroke="#c0c0c0" stroke-width="2" d="M36.9068,-1007.9172C24.8172,-998.8022 12.163,-986.5731 5.6008,-972 -.9685,-957.4108 -2.3162,-949.904 5.6008,-936 12.9127,-923.1588 24.6138,-913.0559 37.2241,-905.2384"/>
<polygon fill="#c0c0c0" stroke="#c0c0c0" stroke-width="2" points="39.1144,-908.1893 46.0567,-900.1858 35.6387,-902.1132 39.1144,-908.1893"/>
</g>
<!-- 23 -->
<g id="node24" class="node">
<title>23</title>
<path fill="none" stroke="#56d863" stroke-width="2" stroke-dasharray="5,2" d="M166.1008,-972C166.1008,-972 27.1008,-972 27.1008,-972 21.1008,-972 15.1008,-966 15.1008,-960 15.1008,-960 15.1008,-948 15.1008,-948 15.1008,-942 21.1008,-936 27.1008,-936 27.1008,-936 166.1008,-936 166.1008,-936 172.1008,-936 178.1008,-942 178.1008,-948 178.1008,-948 178.1008,-960 178.1008,-960 178.1008,-966 172.1008,-972 166.1008,-972"/>
<text text-anchor="middle" x="96.6008" y="-957" font-family="sans" font-size="10.00" fill="#000000">samtools_index</text>
<text text-anchor="middle" x="96.6008" y="-946" font-family="sans" font-size="10.00" fill="#000000">prefix: output/dedup/file1.chr7</text>
</g>
<!-- 22&#45;&gt;23 -->
<g id="edge35" class="edge">
<title>22&#45;&gt;23</title>
<path fill="none" stroke="#c0c0c0" stroke-width="2" d="M74.1711,-1007.8314C77.4501,-999.9617 81.3629,-990.5712 84.9953,-981.8533"/>
<polygon fill="#c0c0c0" stroke="#c0c0c0" stroke-width="2" points="88.3132,-982.9902 88.9287,-972.4133 81.8517,-980.2979 88.3132,-982.9902"/>
</g>
<!-- 23&#45;&gt;19 -->
<g id="edge29" class="edge">
<title>23&#45;&gt;19</title>
<path fill="none" stroke="#c0c0c0" stroke-width="2" d="M96.6008,-935.8314C96.6008,-928.131 96.6008,-918.9743 96.6008,-910.4166"/>
<polygon fill="#c0c0c0" stroke="#c0c0c0" stroke-width="2" points="100.1009,-910.4132 96.6008,-900.4133 93.1009,-910.4133 100.1009,-910.4132"/>
</g>
<!-- 24 -->
<g id="node25" class="node">
<title>24</title>
<path fill="none" stroke="#d85656" stroke-width="2" stroke-dasharray="5,2" d="M274.6008,-1044C274.6008,-1044 200.6008,-1044 200.6008,-1044 194.6008,-1044 188.6008,-1038 188.6008,-1032 188.6008,-1032 188.6008,-1020 188.6008,-1020 188.6008,-1014 194.6008,-1008 200.6008,-1008 200.6008,-1008 274.6008,-1008 274.6008,-1008 280.6008,-1008 286.6008,-1014 286.6008,-1020 286.6008,-1020 286.6008,-1032 286.6008,-1032 286.6008,-1038 280.6008,-1044 274.6008,-1044"/>
<text text-anchor="middle" x="237.6008" y="-1023.5" font-family="sans" font-size="10.00" fill="#000000">mark_duplicates</text>
</g>
<!-- 24&#45;&gt;20 -->
<g id="edge30" class="edge">
<title>24&#45;&gt;20</title>
<path fill="none" stroke="#c0c0c0" stroke-width="2" d="M231.0413,-1007.6929C225.4238,-989.2353 219.3023,-960.1054 226.6008,-936 229.5573,-926.2355 234.9261,-916.6229 240.6308,-908.2762"/>
<polygon fill="#c0c0c0" stroke="#c0c0c0" stroke-width="2" points="243.5423,-910.2239 246.6104,-900.0831 237.888,-906.0973 243.5423,-910.2239"/>
</g>
<!-- 25 -->
<g id="node26" class="node">
<title>25</title>
<path fill="none" stroke="#56d863" stroke-width="2" stroke-dasharray="5,2" d="M387.1008,-972C387.1008,-972 248.1008,-972 248.1008,-972 242.1008,-972 236.1008,-966 236.1008,-960 236.1008,-960 236.1008,-948 236.1008,-948 236.1008,-942 242.1008,-936 248.1008,-936 248.1008,-936 387.1008,-936 387.1008,-936 393.1008,-936 399.1008,-942 399.1008,-948 399.1008,-948 399.1008,-960 399.1008,-960 399.1008,-966 393.1008,-972 387.1008,-972"/>
<text text-anchor="middle" x="317.6008" y="-957" font-family="sans" font-size="10.00" fill="#000000">samtools_index</text>
<text text-anchor="middle" x="317.6008" y="-946" font-family="sans" font-size="10.00" fill="#000000">prefix: output/dedup/file2.chr7</text>
</g>
<!-- 24&#45;&gt;25 -->
<g id="edge37" class="edge">
<title>24&#45;&gt;25</title>
<path fill="none" stroke="#c0c0c0" stroke-width="2" d="M257.7882,-1007.8314C267.4522,-999.1337 279.1805,-988.5783 289.6825,-979.1265"/>
<polygon fill="#c0c0c0" stroke="#c0c0c0" stroke-width="2" points="292.3283,-981.454 297.4199,-972.1628 287.6456,-976.251 292.3283,-981.454"/>
</g>
<!-- 25&#45;&gt;20 -->
<g id="edge31" class="edge">
<title>25&#45;&gt;20</title>
<path fill="none" stroke="#c0c0c0" stroke-width="2" d="M303.722,-935.8314C297.3873,-927.5386 289.7625,-917.557 282.8083,-908.4533"/>
<polygon fill="#c0c0c0" stroke="#c0c0c0" stroke-width="2" points="285.5183,-906.2353 276.6665,-900.4133 279.9556,-910.4847 285.5183,-906.2353"/>
</g>
<!-- 26 -->
<g id="node27" class="node">
<title>26</title>
<path fill="none" stroke="#d85656" stroke-width="2" stroke-dasharray="5,2" d="M520.6008,-1044C520.6008,-1044 446.6008,-1044 446.6008,-1044 440.6008,-1044 434.6008,-1038 434.6008,-1032 434.6008,-1032 434.6008,-1020 434.6008,-1020 434.6008,-1014 440.6008,-1008 446.6008,-1008 446.6008,-1008 520.6008,-1008 520.6008,-1008 526.6008,-1008 532.6008,-1014 532.6008,-1020 532.6008,-1020 532.6008,-1032 532.6008,-1032 532.6008,-1038 526.6008,-1044 520.6008,-1044"/>
<text text-anchor="middle" x="483.6008" y="-1023.5" font-family="sans" font-size="10.00" fill="#000000">mark_duplicates</text>
</g>
<!-- 26&#45;&gt;21 -->
<g id="edge32" class="edge">
<title>26&#45;&gt;21</title>
<path fill="none" stroke="#c0c0c0" stroke-width="2" d="M468.7156,-1007.5185C461.3547,-997.5296 452.9289,-984.6716 447.6008,-972 439.2703,-952.1876 434.4475,-928.3321 431.7468,-910.1605"/>
<polygon fill="#c0c0c0" stroke="#c0c0c0" stroke-width="2" points="435.2068,-909.6289 430.3913,-900.1917 428.2706,-910.5721 435.2068,-909.6289"/>
</g>
<!-- 27 -->
<g id="node28" class="node">
<title>27</title>
<path fill="none" stroke="#56d863" stroke-width="2" stroke-dasharray="5,2" d="M608.1008,-972C608.1008,-972 469.1008,-972 469.1008,-972 463.1008,-972 457.1008,-966 457.1008,-960 457.1008,-960 457.1008,-948 457.1008,-948 457.1008,-942 463.1008,-936 469.1008,-936 469.1008,-936 608.1008,-936 608.1008,-936 614.1008,-936 620.1008,-942 620.1008,-948 620.1008,-948 620.1008,-960 620.1008,-960 620.1008,-966 614.1008,-972 608.1008,-972"/>
<text text-anchor="middle" x="538.6008" y="-957" font-family="sans" font-size="10.00" fill="#000000">samtools_index</text>
<text text-anchor="middle" x="538.6008" y="-946" font-family="sans" font-size="10.00" fill="#000000">prefix: output/dedup/file3.chr7</text>
</g>
<!-- 26&#45;&gt;27 -->
<g id="edge39" class="edge">
<title>26&#45;&gt;27</title>
<path fill="none" stroke="#c0c0c0" stroke-width="2" d="M497.4797,-1007.8314C503.8144,-999.5386 511.4392,-989.557 518.3934,-980.4533"/>
<polygon fill="#c0c0c0" stroke="#c0c0c0" stroke-width="2" points="521.2461,-982.4847 524.5352,-972.4133 515.6834,-978.2353 521.2461,-982.4847"/>
</g>
<!-- 27&#45;&gt;21 -->
<g id="edge33" class="edge">
<title>27&#45;&gt;21</title>
<path fill="none" stroke="#c0c0c0" stroke-width="2" d="M510.8432,-935.8314C496.9038,-926.7074 479.841,-915.539 464.8777,-905.7449"/>
<polygon fill="#c0c0c0" stroke="#c0c0c0" stroke-width="2" points="466.6335,-902.711 456.3496,-900.1628 462.7998,-908.5679 466.6335,-902.711"/>
</g>
<!-- 28 -->
<g id="node29" class="node">
<title>28</title>
<path fill="none" stroke="#d8ac56" stroke-width="2" stroke-dasharray="5,2" d="M106.6008,-1116C106.6008,-1116 26.6008,-1116 26.6008,-1116 20.6008,-1116 14.6008,-1110 14.6008,-1104 14.6008,-1104 14.6008,-1092 14.6008,-1092 14.6008,-1086 20.6008,-1080 26.6008,-1080 26.6008,-1080 106.6008,-1080 106.6008,-1080 112.6008,-1080 118.6008,-1086 118.6008,-1092 118.6008,-1092 118.6008,-1104 118.6008,-1104 118.6008,-1110 112.6008,-1116 106.6008,-1116"/>
<text text-anchor="middle" x="66.6008" y="-1101" font-family="sans" font-size="10.00" fill="#000000">add_readgroup</text>
<text text-anchor="middle" x="66.6008" y="-1090" font-family="sans" font-size="10.00" fill="#000000">sample: file1.chr7</text>
</g>
<!-- 28&#45;&gt;22 -->
<g id="edge34" class="edge">
<title>28&#45;&gt;22</title>
<path fill="none" stroke="#c0c0c0" stroke-width="2" d="M66.6008,-1079.8314C66.6008,-1072.131 66.6008,-1062.9743 66.6008,-1054.4166"/>
<polygon fill="#c0c0c0" stroke="#c0c0c0" stroke-width="2" points="70.1009,-1054.4132 66.6008,-1044.4133 63.1009,-1054.4133 70.1009,-1054.4132"/>
</g>
<!-- 29 -->
<g id="node30" class="node">
<title>29</title>
<path fill="none" stroke="#d8ac56" stroke-width="2" stroke-dasharray="5,2" d="M277.6008,-1116C277.6008,-1116 197.6008,-1116 197.6008,-1116 191.6008,-1116 185.6008,-1110 185.6008,-1104 185.6008,-1104 185.6008,-1092 185.6008,-1092 185.6008,-1086 191.6008,-1080 197.6008,-1080 197.6008,-1080 277.6008,-1080 277.6008,-1080 283.6008,-1080 289.6008,-1086 289.6008,-1092 289.6008,-1092 289.6008,-1104 289.6008,-1104 289.6008,-1110 283.6008,-1116 277.6008,-1116"/>
<text text-anchor="middle" x="237.6008" y="-1101" font-family="sans" font-size="10.00" fill="#000000">add_readgroup</text>
<text text-anchor="middle" x="237.6008" y="-1090" font-family="sans" font-size="10.00" fill="#000000">sample: file2.chr7</text>
</g>
<!-- 29&#45;&gt;24 -->
<g id="edge36" class="edge">
<title>29&#45;&gt;24</title>
<path fill="none" stroke="#c0c0c0" stroke-width="2" d="M237.6008,-1079.8314C237.6008,-1072.131 237.6008,-1062.9743 237.6008,-1054.4166"/>
<polygon fill="#c0c0c0" stroke="#c0c0c0" stroke-width="2" points="241.1009,-1054.4132 237.6008,-1044.4133 234.1009,-1054.4133 241.1009,-1054.4132"/>
</g>
<!-- 30 -->
<g id="node31" class="node">
<title>30</title>
<path fill="none" stroke="#d8ac56" stroke-width="2" stroke-dasharray="5,2" d="M523.6008,-1116C523.6008,-1116 443.6008,-1116 443.6008,-1116 437.6008,-1116 431.6008,-1110 431.6008,-1104 431.6008,-1104 431.6008,-1092 431.6008,-1092 431.6008,-1086 437.6008,-1080 443.6008,-1080 443.6008,-1080 523.6008,-1080 523.6008,-1080 529.6008,-1080 535.6008,-1086 535.6008,-1092 535.6008,-1092 535.6008,-1104 535.6008,-1104 535.6008,-1110 529.6008,-1116 523.6008,-1116"/>
<text text-anchor="middle" x="483.6008" y="-1101" font-family="sans" font-size="10.00" fill="#000000">add_readgroup</text>
<text text-anchor="middle" x="483.6008" y="-1090" font-family="sans" font-size="10.00" fill="#000000">sample: file3.chr7</text>
</g>
<!-- 30&#45;&gt;26 -->
<g id="edge38" class="edge">
<title>30&#45;&gt;26</title>
<path fill="none" stroke="#c0c0c0" stroke-width="2" d="M483.6008,-1079.8314C483.6008,-1072.131 483.6008,-1062.9743 483.6008,-1054.4166"/>
<polygon fill="#c0c0c0" stroke="#c0c0c0" stroke-width="2" points="487.1009,-1054.4132 483.6008,-1044.4133 480.1009,-1054.4133 487.1009,-1054.4132"/>
</g>
</g>
</svg>
